<svg width="170" height="56" viewBox="0 0 170 56" fill="none" xmlns="http://www.w3.org/2000/svg">
<g clip-path="url(#clip0_207_3745)">
<path d="M25.2003 37.3676C30.5355 34.7185 35.9437 27.487 37.2285 23.3394C37.2632 23.2272 37.1342 23.1404 37.0362 23.2055C35.5175 24.2161 34.4798 24.2657 34.1933 24.2567C34.1439 24.2551 34.1047 24.2225 34.0897 24.1755C33.2629 21.5834 29.1308 17.6198 26.4093 15.656C26.2869 15.5677 26.162 15.7263 26.2664 15.8351C34.0591 23.9503 29.4543 33.5946 25.06 37.1094C24.9398 37.2057 25.0624 37.4362 25.2003 37.3676Z" fill="#085F77"/>
<path d="M33.3269 17.5183C32.565 18.4849 32.731 19.8863 33.6978 20.6482C34.6644 21.4101 36.0657 21.2441 36.8277 20.2774C37.5896 19.3108 37.4236 17.9094 36.4568 17.1475C35.4902 16.3856 34.0889 16.5515 33.3269 17.5183Z" fill="#085F77"/>
<path d="M5.53709 10.0685C5.63395 9.96306 5.79983 10.08 5.73896 10.2096C4.29194 13.2897 3.60327 16.7438 3.88436 20.3361C4.78348 31.8266 12.2777 40.6121 24.3066 39.6708C29.9229 39.2313 33.2822 37.1613 36.7219 33.5609C36.8207 33.4576 36.9873 33.5702 36.9234 33.6981C33.6759 40.2046 28.0075 45.0373 20.0636 44.9074C7.32868 44.6994 -0.138988 34.2997 0.00196014 25.6761C0.10032 19.6582 1.74534 14.1939 5.53709 10.0685Z" fill="#085F77"/>
<path d="M22.5958 4.34998C22.7104 6.79475 20.8215 8.86956 18.3767 8.98422C15.9319 9.09886 13.8571 7.20993 13.7425 4.76516C13.6277 2.32039 15.5168 0.245581 17.9614 0.130931C20.4062 0.0162816 22.481 1.90521 22.5958 4.34998Z" fill="#18A36C"/>
<path d="M12.828 46.1159C7.01915 35.7732 7.30431 16.4275 10.736 8.29788C10.7843 8.18337 10.8761 8.17604 10.9006 8.29788C11.4566 11.0537 13.6848 13.3137 14.0887 13.6317C14.13 13.6643 14.1847 13.6662 14.2285 13.6371C18.9027 10.5463 31.672 9.72627 38.0162 10.3159C38.1667 10.3299 38.1449 10.5375 37.9946 10.551C13.9649 12.6975 10.4722 35.89 13.0623 46.0133C13.0988 46.1562 12.9003 46.2444 12.828 46.1159Z" fill="#18A36C"/>
<path d="M56.2368 37.8618V55.4001H52.4786V37.8618H56.2368ZM61.9242 46.2301V47.2824H56.1616V46.2301H61.9242ZM127.918 37.8618V38.9392H56.1616V37.8618H127.918ZM61.9242 47.2323V49.6375H61.6736V49.4371C61.6736 48.8191 61.4732 48.3096 61.0723 47.9087C60.6714 47.5079 60.162 47.299 59.544 47.2824V47.2323H61.9242ZM61.9242 43.8749V46.2802H59.544V46.2301C60.162 46.2134 60.6714 46.0046 61.0723 45.6037C61.4732 45.1862 61.6736 44.6683 61.6736 44.0503V43.8749H61.9242ZM52.5537 53.5711V55.4001H50.5494V55.1495C50.5494 55.1495 50.5995 55.1495 50.6997 55.1495C50.8166 55.1495 50.8751 55.1495 50.8751 55.1495C51.3093 55.1495 51.6768 54.9992 51.9775 54.6985C52.2948 54.3812 52.4618 54.0054 52.4786 53.5711H52.5537ZM52.5537 39.6908H52.4786C52.4618 39.2565 52.2948 38.8891 51.9775 38.5884C51.6768 38.2711 51.3093 38.1124 50.8751 38.1124C50.8751 38.1124 50.8166 38.1124 50.6997 38.1124C50.5995 38.1124 50.5494 38.1124 50.5494 38.1124V37.8618H52.5537V39.6908ZM56.1616 53.5711H56.2368C56.2534 54.0054 56.4122 54.3812 56.7128 54.6985C57.0301 54.9992 57.406 55.1495 57.8403 55.1495C57.8403 55.1495 57.8904 55.1495 57.9906 55.1495C58.0908 55.1495 58.1492 55.1495 58.166 55.1495V55.4001H56.1616V53.5711Z" fill="#085F77"/>
<path d="M69.2453 40.9686L75.7998 55.2802H72.1918L68.0226 44.8372L69.2453 40.9686ZM64.9358 53.9372C64.8288 54.2044 64.8088 54.4317 64.8757 54.6187C64.9425 54.8059 65.0561 54.9528 65.2165 55.0597C65.3768 55.1533 65.5372 55.2 65.6975 55.2H65.8779V55.4005H61.5884V55.2C61.5884 55.2 61.6218 55.2 61.6887 55.2C61.742 55.2 61.7688 55.2 61.7688 55.2C62.0761 55.2 62.3902 55.1066 62.7109 54.9194C63.0449 54.719 63.3189 54.3916 63.5327 53.9372H64.9358ZM69.2453 40.9686L69.3255 43.414L64.3546 55.3403H62.8913L68.0828 43.5944C68.1229 43.5142 68.1896 43.3673 68.2832 43.1534C68.3901 42.9263 68.4969 42.6724 68.6039 42.3918C68.7242 42.1111 68.831 41.8439 68.9246 41.59C69.0181 41.3228 69.0649 41.1156 69.0649 40.9686H69.2453ZM71.35 50.6299V51.4718H65.457V50.6299H71.35ZM71.6506 53.9372H75.1584C75.3855 54.3916 75.6595 54.719 75.9802 54.9194C76.3009 55.1066 76.6148 55.2 76.9223 55.2C76.9223 55.2 76.949 55.2 77.0024 55.2C77.0558 55.2 77.0826 55.2 77.0826 55.2V55.4005H70.7086V55.2H70.889C71.1562 55.2 71.3901 55.0932 71.5905 54.8793C71.791 54.6522 71.811 54.3381 71.6506 53.9372Z" fill="#085F77"/>
<path d="M91.9509 41.0889L92.1113 43.2737L86.1581 53.5965C86.1581 53.5965 86.0914 53.7167 85.9577 53.9573C85.8242 54.1844 85.6905 54.4651 85.5568 54.7991C85.4366 55.1332 85.3764 55.4673 85.3764 55.8013H85.176L84.3943 54.0575L91.9509 41.0889ZM78.3609 53.9372V55.4004H76.136V55.2C76.1494 55.2 76.2096 55.2 76.3164 55.2C76.41 55.2 76.4567 55.2 76.4567 55.2C76.8175 55.2 77.1382 55.0931 77.4189 54.8793C77.6995 54.6522 77.8666 54.3381 77.92 53.9372H78.3609ZM79.2429 54.2579C79.2429 54.2713 79.2429 54.2847 79.2429 54.298C79.2429 54.3114 79.2429 54.3315 79.2429 54.3581C79.2429 54.572 79.3164 54.7724 79.4634 54.9595C79.6237 55.1332 79.8109 55.22 80.0246 55.22H80.3253V55.4004H79.1026V54.2579H79.2429ZM79.5836 41.0889H79.764L80.4656 43.0933L79.1226 55.4004H77.7195L79.5836 41.0889ZM79.764 41.0889L86.3185 51.8526L85.176 55.8013L79.2429 45.8393L79.764 41.0889ZM92.1313 41.0889L94.0355 55.4004H90.8084L89.8062 46.1801L91.9509 41.0889H92.1313ZM93.4142 53.9372H93.8351C93.902 54.3381 94.0756 54.6522 94.3562 54.8793C94.6369 55.0931 94.9509 55.2 95.2983 55.2C95.2983 55.2 95.3518 55.2 95.4587 55.2C95.5656 55.2 95.619 55.2 95.619 55.2V55.4004H93.4142V53.9372ZM90.6881 54.2579H90.8284V55.4004H89.6058V55.22H89.9064C90.1337 55.22 90.3207 55.1332 90.4676 54.9595C90.6147 54.7724 90.6881 54.572 90.6881 54.3581C90.6881 54.3315 90.6881 54.3114 90.6881 54.298C90.6881 54.2847 90.6881 54.2713 90.6881 54.2579Z" fill="#085F77"/>
<path d="M100.612 41.3695V55.4005H97.6054V41.3695H100.612ZM97.6655 53.9372V55.4005H96.062V55.2C96.062 55.2 96.1021 55.2 96.1823 55.2C96.2758 55.2 96.3226 55.2 96.3226 55.2C96.6701 55.2 96.964 55.0797 97.2045 54.8392C97.4584 54.5853 97.5921 54.2847 97.6054 53.9372H97.6655ZM97.6655 42.8327H97.6054C97.5921 42.4853 97.4584 42.1913 97.2045 41.9508C96.964 41.6969 96.6701 41.5699 96.3226 41.5699C96.3226 41.5699 96.2758 41.5699 96.1823 41.5699C96.1021 41.5699 96.062 41.5699 96.062 41.5699V41.3695H97.6655V42.8327ZM100.552 53.9372H100.612C100.625 54.2847 100.752 54.5853 100.993 54.8392C101.247 55.0797 101.547 55.2 101.895 55.2C101.895 55.2 101.935 55.2 102.015 55.2C102.095 55.2 102.142 55.2 102.155 55.2V55.4005H100.552V53.9372ZM100.552 42.8327V41.3695H102.155V41.5699C102.142 41.5699 102.095 41.5699 102.015 41.5699C101.935 41.5699 101.895 41.5699 101.895 41.5699C101.547 41.5699 101.247 41.6969 100.993 41.9508C100.752 42.1913 100.625 42.4853 100.612 42.8327H100.552Z" fill="#085F77"/>
<path d="M108.163 41.3695V55.4005H105.156V41.3695H108.163ZM113.455 54.5386L113.936 55.4005H108.103V54.5386H113.455ZM114.918 51.2914L113.996 55.4005H110.067L110.789 54.5386C111.457 54.5386 112.045 54.4117 112.553 54.1577C113.06 53.8905 113.495 53.5163 113.855 53.0352C114.216 52.5408 114.504 51.9596 114.717 51.2914H114.918ZM105.216 53.9372V55.4005H103.613V55.2C103.613 55.2 103.653 55.2 103.733 55.2C103.827 55.2 103.873 55.2 103.873 55.2C104.221 55.2 104.515 55.0797 104.755 54.8392C105.009 54.5853 105.143 54.2847 105.156 53.9372H105.216ZM105.216 42.8327H105.156C105.143 42.4853 105.009 42.1913 104.755 41.9508C104.515 41.6969 104.221 41.5699 103.873 41.5699C103.873 41.5699 103.827 41.5699 103.733 41.5699C103.653 41.5699 103.613 41.5699 103.613 41.5699V41.3695H105.216V42.8327ZM108.103 42.8327V41.3695H109.706V41.5699C109.693 41.5699 109.646 41.5699 109.566 41.5699C109.486 41.5699 109.446 41.5699 109.446 41.5699C109.098 41.5699 108.798 41.6969 108.544 41.9508C108.303 42.1913 108.176 42.4853 108.163 42.8327H108.103Z" fill="#085F77"/>
<path d="M117.312 41.3896L121.421 48.846L118.575 49.1266L113.885 41.3896H117.312ZM121.521 48.9462V55.4005H118.515V48.9462H121.521ZM124.748 41.3896H126.312L121.321 49.3471L120.299 49.1467L124.748 41.3896ZM123.927 42.8127C124.047 42.6257 124.08 42.4386 124.027 42.2515C123.973 42.051 123.873 41.8907 123.726 41.7704C123.579 41.6367 123.412 41.5699 123.225 41.5699C123.225 41.5699 123.185 41.5699 123.105 41.5699C123.025 41.5699 122.985 41.5699 122.985 41.5699V41.3695H127.775V41.5699H127.495C127.08 41.5699 126.687 41.6902 126.312 41.9307C125.951 42.1713 125.671 42.4453 125.47 42.7526L123.927 42.8127ZM118.094 42.8127L114.706 42.7526C114.519 42.4453 114.245 42.1713 113.885 41.9307C113.524 41.6902 113.129 41.5699 112.702 41.5699H112.421V41.3695H119.056V41.5699C119.056 41.5699 119.009 41.5699 118.916 41.5699C118.835 41.5699 118.795 41.5699 118.795 41.5699C118.501 41.5699 118.274 41.7103 118.114 41.9909C117.967 42.2581 117.96 42.5321 118.094 42.8127ZM118.575 53.9372V55.4005H116.971V55.2C116.971 55.2 117.011 55.2 117.092 55.2C117.172 55.2 117.219 55.2 117.232 55.2C117.579 55.2 117.873 55.0797 118.114 54.8392C118.368 54.5853 118.501 54.2847 118.515 53.9372H118.575ZM121.461 53.9372H121.521C121.521 54.2847 121.648 54.5853 121.902 54.8392C122.156 55.0797 122.457 55.2 122.804 55.2C122.804 55.2 122.844 55.2 122.924 55.2C123.005 55.2 123.045 55.2 123.045 55.2V55.4005H121.461V53.9372Z" fill="#085F77"/>
<path d="M81.2916 15.2124C83.2961 15.2124 85.0331 15.5882 86.5031 16.3399C87.9897 17.0749 89.1339 18.1188 89.9357 19.4718C90.7541 20.8248 91.1634 22.445 91.1634 24.3325C91.1634 26.2033 90.7541 27.8236 89.9357 29.1932C89.1339 30.5462 87.9897 31.5985 86.5031 32.3502C85.0331 33.0852 83.2961 33.4526 81.2916 33.4526C79.2872 33.4526 77.5416 33.0852 76.0551 32.3502C74.5851 31.5985 73.4493 30.5462 72.6476 29.1932C71.8458 27.8403 71.4449 26.2201 71.4449 24.3325C71.4449 22.4618 71.8458 20.8498 72.6476 19.4969C73.4493 18.1272 74.5851 17.0749 76.0551 16.3399C77.5416 15.5882 79.2872 15.2124 81.2916 15.2124ZM81.2916 32.4003C82.4775 32.4003 83.4965 32.0746 84.3484 31.4232C85.2003 30.7551 85.86 29.8196 86.3278 28.617C86.7954 27.4143 87.0293 25.9862 87.0293 24.3325C87.0293 22.6789 86.7954 21.2507 86.3278 20.0481C85.86 18.8454 85.2003 17.9184 84.3484 17.2669C83.4965 16.5988 82.4775 16.2647 81.2916 16.2647C80.1223 16.2647 79.1034 16.5988 78.2349 17.2669C77.383 17.9184 76.7232 18.8454 76.2555 20.0481C75.7878 21.2507 75.554 22.6789 75.554 24.3325C75.554 25.9862 75.7878 27.4143 76.2555 28.617C76.7232 29.8196 77.383 30.7551 78.2349 31.4232C79.1034 32.0746 80.1223 32.4003 81.2916 32.4003Z" fill="#085F77"/>
<path d="M110.346 25.7857L110.572 30.0952C110.204 30.7132 109.712 31.2728 109.094 31.7739C108.476 32.275 107.707 32.6843 106.789 33.0016C105.87 33.3023 104.784 33.4526 103.531 33.4526C101.494 33.436 99.7062 33.0684 98.1695 32.3502C96.6495 31.6152 95.4719 30.5713 94.6367 29.2183C93.8016 27.8653 93.3839 26.2283 93.3839 24.3075C93.3839 22.4367 93.7932 20.8248 94.6116 19.4718C95.4302 18.1022 96.5994 17.0498 98.1194 16.3148C99.6561 15.5798 101.485 15.2124 103.606 15.2124C104.943 15.2124 106.137 15.3461 107.189 15.6133C108.258 15.8805 109.152 16.2062 109.87 16.5904L109.895 20.8749H109.67C109.219 19.2212 108.484 18.0436 107.465 17.3421C106.446 16.6239 105.252 16.2647 103.882 16.2647C102.546 16.2647 101.402 16.5904 100.45 17.2419C99.4974 17.8933 98.7625 18.812 98.2446 19.998C97.7269 21.184 97.4679 22.6037 97.4679 24.2574C97.4679 25.911 97.7102 27.3392 98.1945 28.5418C98.6956 29.7445 99.3972 30.6799 100.299 31.348C101.218 32.0161 102.295 32.3669 103.531 32.4003C104.818 32.4003 105.903 32.1915 106.789 31.7739C107.674 31.3564 108.384 30.6631 108.918 29.6943C109.47 28.7256 109.879 27.4227 110.146 25.7857H110.346Z" fill="#085F77"/>
<path d="M121.803 15.6384V33.1019H118.045V15.6384H121.803ZM127.942 15.5382V16.5905H111.906V15.5382H127.942ZM127.942 16.5153V19.4718L127.691 19.4468V19.1712C127.691 18.3861 127.457 17.7681 126.99 17.3171C126.539 16.8494 125.92 16.6071 125.135 16.5905V16.5153H127.942ZM127.942 15.0872V15.8138L124.885 15.5382C125.252 15.5382 125.637 15.5131 126.038 15.463C126.455 15.4129 126.839 15.3544 127.19 15.2876C127.541 15.2208 127.792 15.1539 127.942 15.0872ZM118.12 31.2729V33.1019H116.115V32.8513C116.115 32.8513 116.166 32.8513 116.266 32.8513C116.383 32.8513 116.441 32.8513 116.441 32.8513C116.876 32.8513 117.243 32.701 117.544 32.4003C117.861 32.083 118.028 31.7072 118.045 31.2729H118.12ZM121.728 31.2729H121.803C121.82 31.7072 121.978 32.083 122.279 32.4003C122.596 32.701 122.972 32.8513 123.407 32.8513C123.407 32.8513 123.457 32.8513 123.557 32.8513C123.674 32.8513 123.732 32.8513 123.732 32.8513V33.1019H121.728V31.2729ZM114.687 16.5153V16.5905C113.919 16.6071 113.301 16.8494 112.833 17.3171C112.382 17.7681 112.157 18.3861 112.157 19.1712V19.4468L111.906 19.4718V16.5153H114.687ZM111.906 15.0872C112.073 15.1539 112.324 15.2208 112.658 15.2876C113.009 15.3544 113.393 15.4129 113.81 15.463C114.228 15.5131 114.612 15.5382 114.963 15.5382L111.906 15.8138V15.0872Z" fill="#085F77"/>
<path d="M156.63 15.5632H159.863C160.614 15.5632 161.35 15.6468 162.067 15.8138C162.787 15.9808 163.42 16.2481 163.972 16.6156C164.54 16.983 164.991 17.4674 165.325 18.0688C165.659 18.6701 165.826 19.4134 165.826 20.2987C165.826 21.0002 165.675 21.7018 165.375 22.4033C165.092 23.0882 164.648 23.6811 164.047 24.1822C163.446 24.6667 162.669 24.959 161.717 25.0592C162.252 25.2262 162.736 25.5268 163.17 25.9612C163.621 26.3955 163.989 26.8297 164.272 27.264C164.29 27.2975 164.381 27.4478 164.548 27.715C164.732 27.9823 164.949 28.3164 165.199 28.7172C165.467 29.1015 165.743 29.494 166.026 29.8948C166.311 30.2957 166.57 30.6465 166.803 30.9472C167.171 31.3982 167.504 31.7656 167.805 32.0496C168.106 32.3168 168.424 32.5173 168.757 32.6509C169.092 32.7678 169.476 32.8347 169.91 32.8514V33.1019H167.454C166.552 33.1019 165.734 33.0268 164.999 32.8764C164.265 32.7094 163.613 32.4338 163.045 32.0496C162.477 31.6654 161.985 31.1476 161.566 30.4962C161.434 30.2957 161.283 30.0452 161.115 29.7445C160.965 29.4272 160.807 29.0931 160.639 28.7423C160.473 28.3915 160.306 28.0574 160.138 27.7401C159.988 27.406 159.855 27.1053 159.737 26.8381C159.621 26.5709 159.537 26.3621 159.487 26.2117C159.27 25.6772 159.011 25.2763 158.71 25.0091C158.427 24.7419 158.118 24.5831 157.783 24.533V24.2825C157.833 24.2825 157.933 24.2825 158.084 24.2825C158.234 24.2825 158.393 24.2825 158.56 24.2825C159.011 24.2825 159.445 24.1906 159.863 24.0069C160.297 23.8231 160.682 23.5224 161.015 23.1049C161.35 22.6873 161.584 22.1111 161.717 21.3761C161.751 21.2257 161.776 21.0503 161.792 20.8499C161.826 20.6495 161.834 20.424 161.817 20.1734C161.767 18.9707 161.466 18.0938 160.915 17.5426C160.364 16.9747 159.68 16.6823 158.86 16.6657C158.627 16.649 158.368 16.649 158.084 16.6657C157.817 16.6657 157.566 16.6657 157.332 16.6657C157.115 16.6657 156.965 16.6657 156.881 16.6657C156.881 16.649 156.856 16.5571 156.806 16.3901C156.773 16.2063 156.731 16.0226 156.681 15.8388C156.648 15.6551 156.63 15.5632 156.63 15.5632ZM156.956 15.5632V33.1019H153.198V15.5632H156.956ZM153.273 31.2729V33.1019H151.269V32.8514C151.286 32.8514 151.336 32.8514 151.419 32.8514C151.519 32.8514 151.578 32.8514 151.594 32.8514C152.029 32.8514 152.396 32.701 152.697 32.4004C153.015 32.083 153.182 31.7072 153.198 31.2729H153.273ZM153.273 17.3923H153.198C153.182 16.9579 153.015 16.5905 152.697 16.2898C152.396 15.9725 152.029 15.8138 151.594 15.8138C151.578 15.8138 151.519 15.8138 151.419 15.8138C151.336 15.8138 151.286 15.8138 151.269 15.8138V15.5632H153.273V17.3923ZM156.881 31.2729H156.956C156.956 31.7072 157.115 32.083 157.432 32.4004C157.75 32.701 158.126 32.8514 158.56 32.8514C158.594 32.8514 158.652 32.8514 158.735 32.8514C158.819 32.8514 158.86 32.8514 158.86 32.8514V33.1019H156.881V31.2729Z" fill="#085F77"/>
<path d="M56.6003 10.3018C59.1626 10.3018 61.3775 10.7686 63.245 11.7024C65.1124 12.6144 66.5455 13.9281 67.5445 15.6435C68.565 17.3373 69.0754 19.3567 69.0754 21.7019C69.0754 24.0471 68.565 26.0774 67.5445 27.7928C66.5455 29.4866 65.1124 30.8003 63.245 31.734C61.3775 32.646 59.1626 33.102 56.6003 33.102H48.8483L48.8157 31.734C49.4453 31.734 50.0968 31.734 50.77 31.734C51.4648 31.734 52.138 31.734 52.7894 31.734C53.4409 31.734 54.0163 31.734 54.5158 31.734C55.0369 31.734 55.4494 31.734 55.7535 31.734C56.0574 31.734 56.2095 31.734 56.2095 31.734C57.7729 31.734 59.1192 31.3323 60.2484 30.5289C61.3775 29.7037 62.2461 28.542 62.8541 27.0437C63.4621 25.5454 63.7662 23.7648 63.7662 21.7019C63.7662 19.639 63.4621 17.8584 62.8541 16.3601C62.2461 14.8618 61.3775 13.7109 60.2484 12.9075C59.1192 12.0824 57.7729 11.6698 56.2095 11.6698C56.2095 11.6698 56.0466 11.6698 55.7209 11.6698C55.4169 11.6698 54.9934 11.6698 54.4506 11.6698C53.9077 11.6698 53.2997 11.6698 52.6266 11.6698C51.9533 11.6698 51.2586 11.6698 50.542 11.6698C49.8254 11.6698 49.1414 11.6698 48.49 11.6698V10.3018H56.6003ZM52.1706 10.3018V33.102H47.2848V10.3018H52.1706ZM47.3825 30.7243V33.102H44.7768V32.7763C44.7768 32.7763 44.8419 32.7763 44.9722 32.7763C45.1242 32.7763 45.2002 32.7763 45.2002 32.7763C45.7647 32.7763 46.2425 32.5809 46.6334 32.19C47.0459 31.7775 47.263 31.2889 47.2848 30.7243H47.3825ZM47.3825 12.6795H47.2848C47.2848 12.1149 47.0785 11.6372 46.6659 11.2464C46.2533 10.8338 45.7647 10.6275 45.2002 10.6275C45.2002 10.6275 45.1351 10.6275 45.0048 10.6275C44.8745 10.6275 44.8093 10.6275 44.8093 10.6275L44.7768 10.3018H47.3825V12.6795Z" fill="#085F77"/>
<path d="M150.768 24.5204C150.768 30.6436 145.805 35.6074 139.681 35.6074C133.559 35.6074 128.594 30.6436 128.594 24.5204C128.594 18.3973 133.559 13.4335 139.681 13.4335C145.805 13.4335 150.768 18.3973 150.768 24.5204Z" fill="#18A36C"/>
</g>
<defs>
<clipPath id="clip0_207_3745">
<rect width="169.996" height="55.9986" fill="white"/>
</clipPath>
</defs>
</svg>
